<svg id="condor_logo" data-name="condor logo" xmlns="http://www.w3.org/2000/svg" viewBox="0 0 155.9052 84.1895"><title>condor</title><rect id="colour_block" data-name="colour block" width="155.9052" height="84.1895" fill="#504c49"/><g id="Condor"><path d="M61.7451,52.8838c-6.332,0-9.1006-4.7217-9.0313-10.7109.0713-6.0176,3.6045-10.7579,9.7149-10.7579a12.0619,12.0619,0,0,1,5.0371,1.0323l-.7637,2.6943a10.2715,10.2715,0,0,0-3.7363-.8076c-2.668,0-5.7656,1.5625-5.8018,7.6719-.0332,5.5712,2.1553,7.958,5.4786,7.958a8.73,8.73,0,0,0,3.7265-.8985l.8555,2.4707a11.6938,11.6938,0,0,1-5.4795,1.3477" fill="#f7ac00"/><path d="M74.2968,39.0029c-2.1093,0-3.0986,1.7071-3.0986,5.75,0,4.045.9434,5.7022,3.0537,5.7041,2.1133,0,3.0547-1.6631,3.0547-5.7041s-.8984-5.75-3.01-5.75Zm-.0439,13.836c-3.9961,0-7.0527-2.2471-7.0527-8.086s3.0566-8.083,7.0527-8.084,7.05,2.2461,7.0508,8.084c-.001,5.8389-3.0537,8.083-7.0508,8.086" fill="#f7ac00"/><path d="M86.89,36.93l.252,1.7432A4.8535,4.8535,0,0,1,91.48,36.6123c3.8779,0,4.5449,2.9883,4.5449,5.2129V52.6318h-3.749V43.0977c0-1.4.1582-3.9434-2.2256-3.9434-2.7344,0-2.9893,3.72-2.9893,5.0547v8.4228h-3.75V36.93H86.89" fill="#f7ac00"/><path d="M104.8193,50.3945c2.86,0,2.86-4.7666,2.86-5.69,0-1.9062-.2217-5.5625-2.7637-5.5625-2.8,0-2.8291,4.6094-2.8291,5.5625,0,2.3857.3486,5.69,2.7324,5.69Zm6.6113-18.7373V52.62h-3.3369l-.1269-2.7012c-.7617,1.334-2.0039,3.0206-4.4512,3.0206-3.6553,0-5.4043-3.7832-5.4043-8.1719,0-5.7207,2.8926-8.169,5.626-8.169A4.187,4.187,0,0,1,107.68,39.27V31.6572h3.7509" fill="#f7ac00"/><path d="M120.5166,39.01c-2.11,0-3.0987,1.71-3.0987,5.749,0,4.043.9883,5.7041,3.0987,5.7041s3.0547-1.6611,3.0547-5.7031c0-4.04-.9414-5.7481-3.0547-5.75Zm0,13.8349c-3.9971,0-7.0518-2.247-7.0518-8.0849.002-5.84,3.0547-8.083,7.0518-8.083s7.0078,2.2431,7.0078,8.083c0,5.8379-3.0108,8.0849-7.0078,8.0849" fill="#f7ac00"/><path d="M132.8584,36.9238l.0927,3.9092c1.2413-3.8467,3.2139-4.1641,3.9454-4.1641a5.3233,5.3233,0,0,1,1.4941.2549l-.6709,3.2735a5.3771,5.3771,0,0,0-1.2041-.1905,2.7429,2.7429,0,0,0-2.1943,1.1446c-.7647,1.05-1.083,2.2256-1.083,5.85v5.626h-3.7491V36.9238h3.3692" fill="#f7ac00"/><path d="M29.7822,29.4268a12.3513,12.3513,0,0,0-12.2676,12.69,12.2737,12.2737,0,1,0,24.5362,0A12.3516,12.3516,0,0,0,29.7822,29.4268Zm0,24.2158a11.1843,11.1843,0,0,1-11.126-11.501,11.1338,11.1338,0,1,1,22.252,0A11.1831,11.1831,0,0,1,29.7822,53.6426Z" fill="#f7ac00"/><path d="M29.0644,39.9629h6.1817l-3.1143,2.5107,1.1455,1.1026,6.4971-5.05-9.6-.001a8.6078,8.6078,0,0,0-2.0655.1172,1.3342,1.3342,0,0,0-.8759.72,1.5921,1.5921,0,0,0,.0556,1.2832,16.9656,16.9656,0,0,0,2.0694,2.3018c-1.2637-.7764-4.6367-2.9834-4.6367-2.9834s.749.0009.9375.0009c0-.3593-.001-1.4394-.001-1.4394H19.7051L37.2275,49.9209V47.917l-8.2549-7.4912C28.6474,40.125,28.7549,39.9629,29.0644,39.9629Z" fill="#f7ac00"/></g></svg>
