<svg id="Ebene_1" data-name="Ebene 1" xmlns="http://www.w3.org/2000/svg" viewBox="0 0 733.8177 343.1292"><title>partner2</title><path d="M188.5537,1.2432H226.29q6.009,0,6.009,4.1663a4.1948,4.1948,0,0,1-3.205,4.3266q-2.6445.8823-3.125,1.1215a2.2646,2.2646,0,0,0-.881.8813,6.8788,6.8788,0,0,0-.961,4.0862V96.0242a6.87,6.87,0,0,0,.961,4.087,3.167,3.167,0,0,0,.881.961q.4815.162,3.125,1.042a4.2,4.2,0,0,1,3.205,4.326q0,4.1685-6.009,4.166H185.83a11.0821,11.0821,0,0,1-5.368-1.041,3.6459,3.6459,0,0,1-1.763-3.285q0-3.5235,3.846-4.407,3.1245-.7995,3.685-.961a3.0237,3.0237,0,0,0,1.122-.962,7.078,7.078,0,0,0,1.202-4.566V1.2432Zm-29.484,0,15.783,44.947,6.971-24.2762v26.6l-18.508,62.092H159.07l-31.087-92.2173q-1.6035-4.6458-3.365-6.2495a6.9353,6.9353,0,0,0-3.605-1.5221q-5.2095-1.1193-5.208-4.9673a3.8247,3.8247,0,0,1,1.442-3.2049,6.8345,6.8345,0,0,1,4.327-1.2019Zm-31.087,36.855,8.493,24.196V86.41a40.33,40.33,0,0,0,.24,5.288,14.15,14.15,0,0,0,1.282,3.525,11.887,11.887,0,0,0,4.647,5.288l2.965,1.923q3.042,1.8435,3.044,4.086,0,4.086-6.009,4.086h-20.11q-6.009,0-6.009-4.006a3.1872,3.1872,0,0,1,.481-1.923,7.37,7.37,0,0,1,2.083-1.602q8.8935-4.8075,8.893-16.665V38.0982Z" transform="translate(0 1)" fill="#fff"/><path d="M294.1057,1.2432v109.363H256.37a8.1844,8.1844,0,0,1-4.487-1.041,3.6557,3.6557,0,0,1-1.522-3.125,4.1949,4.1949,0,0,1,3.205-4.326q2.643-.879,3.044-1.042a2.7238,2.7238,0,0,0,.962-.961,6.87,6.87,0,0,0,.961-4.087V15.8251a6.8788,6.8788,0,0,0-.961-4.0862,2.0734,2.0734,0,0,0-.962-.8813,26.6417,26.6417,0,0,0-3.044-1.1215,4.1918,4.1918,0,0,1-3.205-4.3266,3.4556,3.4556,0,0,1,1.522-3.0445,7.7623,7.7623,0,0,1,4.487-1.1218h37.736Zm7.131,0h32.288v28.362a5.4883,5.4883,0,0,1-.962,3.606,4.7914,4.7914,0,0,1-5.608.4,7.0284,7.0284,0,0,1-1.522-2.964q-3.0465-9.2916-8.974-14.1811-5.85-4.8863-15.222-5.8488V1.2432Zm-.401,58.327v-9.294a20.76,20.76,0,0,0,6.89-4.887,16.664,16.664,0,0,0,3.285-7.051,9.069,9.069,0,0,1,1.683-4.166,3.7061,3.7061,0,0,1,2.964-1.202,3.5618,3.5618,0,0,1,3.526,2.003q.56,1.044.56,4.727v30.526q0,3.7665-.881,5.208a3.1718,3.1718,0,0,1-3.044,1.442,3.7367,3.7367,0,0,1-2.885-1.122,8.4881,8.4881,0,0,1-1.682-3.765,20.3335,20.3335,0,0,0-3.926-8.493,11.8407,11.8407,0,0,0-6.49-3.926Zm.307,51.558v-8.653a35.9,35.9,0,0,0,8.573-2.244,26.1493,26.1493,0,0,0,6.89-4.406,28.3356,28.3356,0,0,0,5.448-6.089,40.3359,40.3359,0,0,0,3.926-8.413,8.6061,8.6061,0,0,1,1.843-3.445,3.5722,3.5722,0,0,1,2.644-.961,3.4365,3.4365,0,0,1,3.124,1.362q.879,1.284.882,4.566v28.283Z" transform="translate(0 1)" fill="#fff"/><path d="M509.5027,110.6062h-37.816a8.1844,8.1844,0,0,1-4.487-1.041,3.6557,3.6557,0,0,1-1.522-3.125,4.196,4.196,0,0,1,3.205-4.326q2.6445-.879,3.044-1.042a2.7238,2.7238,0,0,0,.962-.961,6.87,6.87,0,0,0,.961-4.087V15.8251a6.878,6.878,0,0,0-.961-4.0862,2.0734,2.0734,0,0,0-.962-.8813,26.5572,26.5572,0,0,0-3.044-1.1215,4.1929,4.1929,0,0,1-3.205-4.3266A3.4556,3.4556,0,0,1,467.2,2.365a7.7645,7.7645,0,0,1,4.487-1.1218h39.899a7.3687,7.3687,0,0,1,4.407,1.1218,3.4167,3.4167,0,0,1,1.603,3.0445,4.1948,4.1948,0,0,1-3.205,4.3266q-2.6445.8823-3.125,1.1215a2.2517,2.2517,0,0,0-.881.8813,6.8788,6.8788,0,0,0-.962,4.0862V96.0242a6.87,6.87,0,0,0,.962,4.087,3.1421,3.1421,0,0,0,.881.961q.48.162,3.125,1.042a4.2009,4.2009,0,0,1,3.205,4.326,3.6023,3.6023,0,0,1-1.603,3.125,7.7782,7.7782,0,0,1-4.407,1.041Z" transform="translate(0 1)" fill="#fff"/><path d="M579.7227-.92V8.7745a9.8306,9.8306,0,0,0-7.051,4.1661q-2.3235,3.4479-2.3229,9.8548V92.4192a12.0275,12.0275,0,0,0,.7209,3.926,12.5949,12.5949,0,0,0,2.003,3.445,8.3059,8.3059,0,0,0,2.724,2.324,12.9439,12.9439,0,0,0,3.926.881v9.774q-15.5445,0-27-8.092A44.0064,44.0064,0,0,1,537.5,85.5292q-5.13-12.0975-5.1281-28.603a74.4944,74.4944,0,0,1,3.285-22.514,54.4578,54.4578,0,0,1,9.695-18.1866A50.1473,50.1473,0,0,1,560.6547,3.727,37.0042,37.0042,0,0,1,577.88-1l1.8429.08Zm6.33,9.7746V-.84a52.2669,52.2669,0,0,1,6.329,1.362q2.4825.7212,8.8931,3.0446a21.2574,21.2574,0,0,0,5.4479,1.442,3.8446,3.8446,0,0,0,3.526-2.083L611.29,1.003a3.6524,3.6524,0,0,1,3.606-1.923,4.1352,4.1352,0,0,1,3.285,1.282,5.32,5.32,0,0,1,1.201,3.7656v33.33q0,3.207-1.442,4.647a4.5249,4.5249,0,0,1-3.285,1.442,4.2219,4.2219,0,0,1-3.124-1.202,10.0435,10.0435,0,0,1-1.843-4.086,69.62,69.62,0,0,0-3.285-9.9345,45.5063,45.5063,0,0,0-7.852-12.3383,25.3013,25.3013,0,0,0-5.929-4.8875,17.21,17.21,0,0,0-6.569-2.2433Zm.24,103.9146v-9.774a29.6112,29.6112,0,0,0,13.14-4.727,24.6742,24.6742,0,0,0,6.569-6.169,28.7941,28.7941,0,0,0,4.327-8.573,8.9187,8.9187,0,0,1,1.8431-3.606,3.9117,3.9117,0,0,1,2.884-1.121,4.1118,4.1118,0,0,1,3.2049,1.442,5.2422,5.2422,0,0,1,1.281,3.605q0,3.606-2.804,8.733a39.6431,39.6431,0,0,1-7.05,9.454,37.7942,37.7942,0,0,1-10.896,7.852,33.1,33.1,0,0,1-12.499,2.884Z" transform="translate(0 1)" fill="#fff"/><path d="M401.4207,101.8732q-3.129-.7995-3.685-.961a3.3445,3.3445,0,0,1-1.202-1.042q-1.2015-1.359-1.202-4.486V1.2432H357.5958a7.7625,7.7625,0,0,0-4.4871,1.1218,3.4556,3.4556,0,0,0-1.522,3.0445,4.1918,4.1918,0,0,0,3.205,4.3266,26.6417,26.6417,0,0,1,3.044,1.1215,2.0674,2.0674,0,0,1,.961.8813,6.8781,6.8781,0,0,1,.962,4.0862V96.0242a6.87,6.87,0,0,1-.962,4.087,2.7143,2.7143,0,0,1-.961.961q-.402.162-3.044,1.042a4.1949,4.1949,0,0,0-3.205,4.326,3.6557,3.6557,0,0,0,1.522,3.125,8.1845,8.1845,0,0,0,4.4871,1.041h40.54a9.8893,9.8893,0,0,0,5.048-.961,3.8392,3.8392,0,0,0,2.083-3.365Q405.2667,102.7567,401.4207,101.8732Z" transform="translate(0 1)" fill="#fff"/><path d="M449.4517,102.1252l-2.608-1.041a2.9924,2.9924,0,0,1-.736-.962,3.8569,3.8569,0,0,1-.2938-.6145,31.5209,31.5209,0,0,1-.4072-6.5275V76.3952a15.2963,15.2963,0,0,0-1.843-7.291,16.952,16.952,0,0,0-5.128-5.929,27.133,27.133,0,0,0-7.21-3.685,67.7752,67.7752,0,0,0-11.297-2.484,83.1371,83.1371,0,0,0,12.018-4.326,24.3417,24.3417,0,0,0,6.97-4.968q7.0485-7.2105,7.051-18.5072-.0045-13.7791-10.496-21.2317a33.47,33.47,0,0,0-16.585-6.089q-6.249-.6386-15.142-.6411h-2.084v8.8934q5.127,1.4457,7.051,3.9258,2.001,2.4863,2.003,7.5311V42.8252a17.636,17.636,0,0,1-.641,5.448,7.2471,7.2471,0,0,1-2.163,3.285q-1.845,1.6035-6.1689,2.243v8.573a9.6233,9.6233,0,0,1,6.6489,3.285,10.904,10.904,0,0,1,2.244,5.528q.078.726.08,5.208v13.46a27.1806,27.1806,0,0,0,2.3032,11.6438c-.4036.1645-.9178.3715-1.5572.6262q-2.6775,1.044-2.676,4.327a3.9378,3.9378,0,0,0,1.271,3.124,5.953,5.953,0,0,0,3.746,1.042h33.309a5.67,5.67,0,0,0,3.679-1.042,3.8548,3.8548,0,0,0,1.338-3.124Q452.1247,103.1687,449.4517,102.1252Z" transform="translate(0 1)" fill="#fff"/><path d="M650.9258,187.6832h-6.5331c-7.052,0-8.711,1.146-9.126,7.186h24.94v-1.77C660.2068,190.3912,658.1847,187.6832,650.9258,187.6832Z" transform="translate(0 1)" fill="#fff"/><path d="M692.54,187.9012h-5.91c-6.0111,0-9.0171,1.12-9.0171,7.132v5.094c0,5.043,1.58,7.437,8.712,7.437h7.132c6.52,0,8.609-2.751,8.609-7.488v-4.942C702.0657,188.92,698.4487,187.9012,692.54,187.9012Z" transform="translate(0 1)" fill="#fff"/><path d="M58.2877,320.1232v-26.89H48.66V320.26c0,6.258-2.75,12.448-9.9026,12.448s-9.8343-6.396-9.8343-12.585v-26.89h-9.628V320.26c0,12.241,6.327,21.869,19.4623,21.869,13.4106,0,19.5306-9.49,19.5306-22.006Zm44.654,6.67c0-16.78-21.595-13.135-25.239-18.568a3.7238,3.7238,0,0,1-.551-2.063c0-3.507,4.127-4.333,6.877-4.333a14.8163,14.8163,0,0,1,10.935,4.952l6.946-6.74a22.9686,22.9686,0,0,0-17.537-7.564c-8.459,0-17.192,4.607-17.192,14.098,0,9.903,6.739,12.378,15.06,14.373,2.545.619,8.391,1.788,9.972,3.92a4.0157,4.0157,0,0,1,.757,2.613c0,4.745-4.745,5.227-8.39,5.227a15.6726,15.6726,0,0,1-12.31-5.502l-6.946,6.189c4.126,6.052,11.622,8.734,18.705,8.734,10.11,0,18.913-3.851,18.913-15.336Zm49.907,14.58-18.294-48.14h-9.352l-18.431,48.14h10.316l3.782-10.728h17.605l3.783,10.728Zm-17.675-19.875h-11.003c1.926-5.364,3.989-10.728,5.502-16.23,1.513,5.502,3.576,10.866,5.501,16.23Zm87.683,19.875-9.078-10.316a51.2441,51.2441,0,0,0,5.433-12.035l-7.771-2.476c-1.031,2.683-2.063,5.365-3.37,7.978l-13.272-15.13c-1.376-1.513-2.545-3.094-2.545-5.226,0-2.476,2.545-3.164,4.539-3.164a16.5713,16.5713,0,0,1,10.041,3.439l4.607-6.946c-4.676-3.301-8.596-5.02-14.373-5.02-7.496,0-14.304,3.576-14.304,11.897,0,4.745,2.407,7.771,5.433,11.141-5.846,2.888-9.835,6.946-9.835,13.823,0,9.628,7.29,12.791,15.818,12.791a21.6037,21.6037,0,0,0,14.029-4.676l3.645,3.92Zm-20.15-9.903a12.3476,12.3476,0,0,1-7.427,2.132c-3.301,0-7.29-1.032-7.29-5.089,0-3.508,2.338-5.846,5.296-7.359l9.421,10.316Zm89.058,9.903-17.674-31.497,14.098-16.643h-11.622l-13.479,16.436a51.5889,51.5889,0,0,0-3.783,4.883c.069-2.269.138-4.539.138-6.808v-14.511h-9.628v48.14h9.628v-14.167l7.702-9.078,13.067,23.245Zm33.319,0v-24.208c0-8.665-6.671-12.654-14.648-12.654a24.7867,24.7867,0,0,0-13.548,3.645l3.645,6.602a17.8188,17.8188,0,0,1,9.903-2.407c2.888,0,5.158,1.582,5.158,4.608v1.788a15.0207,15.0207,0,0,0-6.946-1.444c-7.565,0-14.649,3.507-14.649,11.966,0,7.909,5.777,12.86,13.48,12.86a11.4913,11.4913,0,0,0,8.115-3.163v2.407Zm-9.49-10.591c-1.307,2.201-4.127,3.301-6.602,3.301-3.095,0-5.502-1.444-5.502-4.814,0-3.301,2.544-4.539,5.502-4.539a11.71,11.71,0,0,1,6.602,1.513v4.539Zm48.724,10.591v-20.356c0-8.941-3.232-16.506-13.342-16.506a12.5724,12.5724,0,0,0-8.458,3.852v-3.095h-9.491v36.105h9.491v-19.737c0-4.402.962-8.184,6.189-8.184,5.295,0,6.121,3.988,6.121,8.39v19.531Zm36.813,0v-24.208c0-8.665-6.671-12.654-14.648-12.654a24.7913,24.7913,0,0,0-13.548,3.645l3.645,6.602a17.8188,17.8188,0,0,1,9.903-2.407c2.888,0,5.158,1.582,5.158,4.608v1.788a15.0207,15.0207,0,0,0-6.946-1.444c-7.565,0-14.648,3.507-14.648,11.966,0,7.909,5.776,12.86,13.479,12.86a11.49,11.49,0,0,0,8.115-3.163v2.407Zm-9.49-10.591c-1.307,2.201-4.127,3.301-6.602,3.301-3.095,0-5.502-1.444-5.502-4.814,0-3.301,2.545-4.539,5.502-4.539a11.71,11.71,0,0,1,6.602,1.513v4.539Zm46.847,10.591v-50.134l-9.491,1.169v15.611c-1.65-2.407-4.814-3.508-7.633-3.508-10.247,0-14.03,9.491-14.03,18.362,0,9.009,3.301,19.256,14.03,19.256,2.957,0,5.501-1.788,7.633-3.713v2.957Zm-9.491-11.21a6.6931,6.6931,0,0,1-5.845,3.026c-5.364,0-6.19-6.396-6.19-10.522,0-3.714.826-9.215,5.64-9.215a7.7273,7.7273,0,0,1,6.395,3.094v13.617Zm46.806,11.21v-24.208c0-8.665-6.671-12.654-14.6479-12.654a24.7868,24.7868,0,0,0-13.5481,3.645l3.644,6.602a17.8243,17.8243,0,0,1,9.9041-2.407c2.8879,0,5.1569,1.582,5.1569,4.608v1.788a15.0207,15.0207,0,0,0-6.946-1.444c-7.564,0-14.648,3.507-14.648,11.966,0,7.909,5.777,12.86,13.479,12.86a11.4879,11.4879,0,0,0,8.115-3.163v2.407Zm-9.491-10.591c-1.306,2.201-4.126,3.301-6.602,3.301-3.094,0-5.501-1.444-5.501-4.814,0-3.301,2.544-4.539,5.501-4.539a11.71,11.71,0,0,1,6.602,1.513v4.539Zm78.88,10.591-9.215-18.706c6.465-2.476,9.215-7.427,9.215-14.167,0-9.903-7.152-15.267-16.573-15.267h-22.42v48.14h9.628v-17.33h9.697l8.596,17.33Zm-9.903-32.666c0,4.401-2.682,6.258-6.877,6.258h-12.585v-12.379h12.585c4.127,0,6.877,1.719,6.877,6.121Zm45.9661,14.648c0-9.216-4.8141-18.844-15.198-18.844s-16.0931,9.353-16.0931,18.844c0,10.522,5.846,18.774,16.987,18.774,4.745,0,9.972-2.063,12.929-5.845l-6.74-5.639a8.1515,8.1515,0,0,1-6.189,2.544c-4.195,0-7.152-2.544-7.427-6.808h21.594c.069-1.032.1371-1.995.1371-3.026Zm-9.2151-4.126h-12.379c.275-3.302,2.27-6.465,5.915-6.465,3.851,0,6.189,2.751,6.464,6.465Zm25.39-17.468V292.27h-9.49v9.491Zm0,39.612v-36.105h-9.49v36.105Zm36.38-10.522c0-12.86-19.531-11.004-19.531-15.886,0-2.27,2.888-2.339,4.539-2.339a23.322,23.322,0,0,1,10.866,2.889l3.025-7.496a28.3831,28.3831,0,0,0-13.341-3.508c-7.084,0-14.442,2.339-14.442,10.729,0,13.341,19.531,10.522,19.531,16.023,0,2.683-2.82,2.751-4.814,2.751a25.5806,25.5806,0,0,1-12.516-3.301l-3.1639,7.221a27.9134,27.9134,0,0,0,15.13,4.195c7.496,0,14.717-2.544,14.717-11.278Zm35.994-7.496c0-9.216-4.814-18.844-15.199-18.844s-16.092,9.353-16.092,18.844c0,10.522,5.845,18.774,16.9861,18.774,4.7458,0,9.9719-2.063,12.9289-5.845l-6.739-5.639a8.1536,8.1536,0,0,1-6.19,2.544c-4.1951,0-7.1521-2.544-7.4271-6.808h21.594c.069-1.032.138-1.995.138-3.026Zm-9.2159-4.126H648.21c.275-3.302,2.2691-6.465,5.914-6.465,3.851,0,6.189,2.751,6.4641,6.465Zm46.9638,22.144v-20.356c0-8.941-3.2319-16.506-13.3419-16.506a12.5768,12.5768,0,0,0-8.459,3.852v-3.095h-9.49v36.105h9.49v-19.737c0-4.402.963-8.184,6.19-8.184,5.295,0,6.121,3.988,6.121,8.39v19.531Z" transform="translate(0 1)" fill="#fff"/><path d="M733.7768,131.7654c-.0454-2.7506-.4777-10.4428-4.548-12.9522a17.8741,17.8741,0,0,0-2.9051-1.717,6.2806,6.2806,0,0,1-3.665-2.84,36.8068,36.8068,0,0,1-1.6489-5.039L695.54,1.5652h-36.923l-2.29,8.9786,16.8579,74.4854h-20.523l-2.473,10.903H675.75l2.9321,13.285a12.3428,12.3428,0,0,1,.275,2.748,4.8892,4.8892,0,0,1-.7331,2.749,6.4673,6.4673,0,0,1-2.565,2.015c-.2961.1589-.5671.3114-.8265.461H648.0353l-2.6116-1.193a8.4705,8.4705,0,0,1-5.405-8.246,17.3712,17.3712,0,0,1,.733-4.764l16.216-59.186-4.672-18.965L631.59,100.33a32.5371,32.5371,0,0,1-4.215,9.986,16.8213,16.8213,0,0,1-3.481,3.665,30.472,30.472,0,0,1-5.497,2.932c-.2068.0894-.3908.184-.5818.277H112.1622c-.0717-.0313-.1306-.0627-.2045-.094a6.2838,6.2838,0,0,1-3.665-2.84,37.0964,37.0964,0,0,1-1.649-5.039L81.1737,1.5652H44.2517l-2.2905,8.9786L58.8187,85.0292H38.2965l-2.4736,10.903H61.3847l2.931,13.285a12.2718,12.2718,0,0,1,.2751,2.748,4.8884,4.8884,0,0,1-.7331,2.749,6.4535,6.4535,0,0,1-2.565,2.015c-.2958.159-.5666.3114-.8258.461H33.67l-2.6113-1.193a8.47,8.47,0,0,1-5.4056-8.246,17.3865,17.3865,0,0,1,.733-4.764l16.2166-59.186L37.93,24.8362,17.2242,100.33a32.5594,32.5594,0,0,1-4.2144,9.986,16.8369,16.8369,0,0,1-3.4815,3.665,30.4807,30.4807,0,0,1-5.4971,2.932Q-.0014,118.6562,0,121.31c0,.0722.008.14.01.2113v10.7259c-.0023.1095-.01.2177-.01.3278V218.77a15.3854,15.3854,0,0,0,15.3855,15.386H718.4318a15.3859,15.3859,0,0,0,15.3859-15.386v-86.195C733.8177,132.3018,733.7909,132.0353,733.7768,131.7654ZM160.3807,150.1812l4.1531-8.928,2.9069,8.513h8.72l-6.436,6.021,3.322,8.72-8.721-4.152-8.3049,4.152,1.8689-8.305-5.813-6.021Zm-47.063.048,4.153-8.928,2.907,8.513h8.72l-6.436,6.021,3.321,8.72-8.72-4.152-8.305,4.152,1.869-8.305-5.814-6.021Zm-38.627,46.636a20.9529,20.9529,0,0,0,1.884,4.466c.104.21-16.12-2.442-16.12-2.442s-2.582-.558-2.651.873.767,13.093.732,12.849c.035.209-3.454,0-3.454,0l.767-12.71a1.2748,1.2748,0,0,0-1.43-1.117c-1.361,0-17.341,2.582-17.341,2.582s1.8492-3.5589,1.9538-4.78a5.78,5.78,0,0,0-.07-1.849s-.0354-.733-1.8848-2.164-15.5606-12.944-15.5606-12.944,4.1944-.348,4.5083-1.465-.6007-3.071-.6007-3.071L22.12,164.3492l8.2931,2.684s2.4774.664,3.4891-.871a26.1289,26.1289,0,0,0,2.0238-4.362l8.5483,9.63s1.3107,1.547,1.9736-.023c.3139-.733-3.9274-21.191-3.9274-21.191l6.49,3.698s.767.349,1.116-.174,6.683-13.119,6.683-13.119l6.402,12.805s.313,1.082,1.779.314,6.071-3.559,6.071-3.559l-4.19,20.625s.142,1.635,2.201.624c.8721-.419,8.618-9.595,8.618-9.595l1.675,3.873s.697,1.989,3.907,1.291a51.8452,51.8452,0,0,0,8.6771-3.401l-3.8611,11.74s-1.4949,2.568-.343,3.127a24.375,24.375,0,0,0,4.285,1.094l-17.026,14.375S74.1317,194.5622,74.6907,196.8652Zm51.292,13.64-8.72-4.152-8.305,4.152,1.869-8.305-5.814-6.021h8.305l4.153-8.928,2.907,8.513h8.72l-6.436,6.021Zm14.897-26.712-8.305,4.153,1.869-8.305-5.814-6.021h8.305l4.153-8.928,2.9071,8.513h8.72l-6.436,6.021,3.322,8.72Zm32.167,27.264-8.721-4.153-8.3049,4.153,1.8689-8.305-5.813-6.022h8.304l4.1531-8.927,2.9069,8.512h8.72l-6.436,6.021Zm15.068-27.257-8.305,4.153,1.868-8.305-5.813-6.021h8.305l4.152-8.928,2.907,8.512h8.72l-6.436,6.022,3.322,8.72Zm32.679,27.257-8.72-4.153-8.305,4.153,1.869-8.305-5.814-6.022h8.305l4.153-8.927,2.906,8.512h8.721l-6.437,6.021Zm-3.322-55.27,3.322,8.72-8.72-4.152-8.305,4.152,1.869-8.305-5.814-6.021h8.305l4.153-8.928,2.906,8.512h8.721Zm205.0267,55.1647h-4.151v-4.584h-.1031c-1.661,4.115-5.136,5-10.6889,5h-6.6921c-8.3529,0-11-4.219-11-9.01v-17.97h4.4631v16.876c0,3.906,1.0889,6.459,9.7529,6.459h1.142c10.429,0,12.815-1.98,12.815-8.23v-15.105h4.4621Zm43.4559.009h-4.463v-16.876c0-3.906-1.089-6.458-9.7539-6.458h-1.1411c-10.4289,0-12.815,1.979-12.815,8.229v15.105h-4.4629v-26.564h4.151v4.584h.1029c1.6621-4.1151,5.137-5.001,10.6891-5.001h6.6929c8.353,0,11,4.219,11,9.0109Zm17.0184.0583H478v-37.475h4.973Zm17.7461-.296h-4.3811v-25.981h4.3811Zm0-32.094h-4.3811V173.84h4.3811Zm68.0079,32.39h-4.43v-17.293c0-3.073-1.337-6.041-8.393-6.041h-3.141c-7.982,0-9.063,3.333-9.063,7.604v15.73h-4.428v-16.095c0-5.156-1.597-7.239-8.651-7.239h-4.429c-5.664,0-8.29,2.396-8.29,6.666v16.668h-4.429v-26.564h4.119v3.126h.103c1.855-2.762,4.378-3.543,8.806-3.543h7.158c4.016,0,7.1061,1.615,8.496,4.897,1.648-3.594,5.201-4.897,9.733-4.897h5.355c7.1061,0,11.484,3.126,11.484,9.168Zm16.107-.296h-4.38v-25.981h4.38Zm0-32.094h-4.38V173.84h4.38Zm38.206,23.305c0,5.291-.52,9.492-10.194,9.492h-2.444c-8.375,0-10.351-4.046-10.351-8.35v-14.887h-5.825v-3.631h5.825v-6.276h4.473v6.276H622.26v3.631h-17.736v13.175c0,4.927,1.717,6.432,6.606,6.432h1.404c5.929,0,6.865-1.245,6.865-6.795v-1.972h3.641Zm41.6261-3.421H635.2667v1.667c0,6.04,2.904,7.602,10.682,7.602h6.117c5.6,0,7.881-.73,8.1411-4.791h4.459v.521c0,6.092-5.03,7.914-13.3261,7.914h-8.088c-5.807,0-12.444-1.0929-12.444-10.882v-5.779c0-9.633,6.637-10.727,12.9621-10.727h7.156c7.985,0,13.74,2.031,13.74,11.508Zm41.7809,12.21h-4.075v-4.126H702.27c-1.2741,3.158-4.84,4.533-9.4251,4.533h-6.113c-7.9459,0-13.499-1.987-13.499-10.952v-4.585c0-8.304,3.2091-11.259,13.754-11.259H693.66c4.9929,0,7.387,1.173,8.3039,3.872h.102V173.84h4.381Z" transform="translate(0 1)" fill="#fff"/></svg>