<svg id="Layer_1" data-name="Layer 1" xmlns="http://www.w3.org/2000/svg" viewBox="0 0 572.5088 282.9087"><title>partner</title><path d="M114.2061,284.6108V258.1094h-5.9175v-3.0855h15.6386v3.0855h-5.9594v26.5014Z" transform="translate(-12.6836 -9.3525)" fill="#00aec5"/><path d="M129.5884,284.6108h-3.4663V254.1787h3.4663v18.0479a4.8685,4.8685,0,0,1,4.2685-2.4092c4.3535,0,6.0445,2.7475,6.0445,6.9741v7.8193h-3.5083v-7.8193c0-2.9165-1.31-4.1421-3.3389-4.1421-1.9023,0-3.4658,1.1836-3.4658,4.0151Z" transform="translate(-12.6836 -9.3525)" fill="#00aec5"/><path d="M150.4219,269.8174c4.9873,0,7.4814,3.6352,7.4814,7.6928a5.6367,5.6367,0,0,1-.0425.8453H146.28c.042,2.5786,2.0708,4.1,4.6494,4.1a6.9878,6.9878,0,0,0,4.3955-1.7334l1.6909,1.69a8.6222,8.6222,0,0,1-6.5093,2.79,7.6932,7.6932,0,1,1-.0844-15.3852Zm-4.1846,6.1289h8.3691a4.4413,4.4413,0,0,0-4.1845-3.7617A4.2945,4.2945,0,0,0,146.2373,275.9463Z" transform="translate(-12.6836 -9.3525)" fill="#00aec5"/><path d="M175.8613,285.0337a14.5424,14.5424,0,0,1-8.749-2.917l1.9443-2.4512a13.2357,13.2357,0,0,0,6.72,2.24c2.7475,0,5.4946-1.7334,5.4946-4.565,0-6.8472-12.5952-8.0308-12.5952-16.1035,0-4.3535,4.1841-6.5938,8.2841-6.5938a11.3887,11.3887,0,0,1,7.3121,2.5787l-1.9864,2.3242a8.9616,8.9616,0,0,0-5.1142-1.8594c-2.1558,0-4.6494,1.0142-4.6494,3.55,0,5.5791,12.5957,7.312,12.5957,16.1035C185.1182,282.4975,180.0884,285.0337,175.8613,285.0337Z" transform="translate(-12.6836 -9.3525)" fill="#00aec5"/><path d="M196.8643,285.2026a5.6129,5.6129,0,0,1-4.9449-2.832v9.8486h-3.4663v-21.937h3.4663v2.4517a5.5829,5.5829,0,0,1,4.9029-2.874c4.3535,0,7.0586,3.6347,7.0586,7.65S201.1333,285.2026,196.8643,285.2026Zm-.7183-12.3418a4.3206,4.3206,0,0,0-4.2266,4.5645c0,2.5361,1.648,4.7764,4.2266,4.7764a4.346,4.346,0,0,0,4.2266-4.6495C200.3726,274.89,198.6821,272.8608,196.146,272.8608Z" transform="translate(-12.6836 -9.3525)" fill="#00aec5"/><path d="M210.5972,266.0557a2.1741,2.1741,0,0,1-2.1978,2.1557,2.1769,2.1769,0,0,1,0-4.3535A2.1829,2.1829,0,0,1,210.5972,266.0557Zm-3.9732,4.2265H210.09v8.834c0,2.0288.169,2.9585,1.69,2.9585.1269,0,.1689-.042.2959-.042L212.33,284.4a4.69,4.69,0,0,1-1.479.4219,6.5885,6.5885,0,0,1-.93-.042c-2.7471-.211-3.2969-2.62-3.2969-5.6636Z" transform="translate(-12.6836 -9.3525)" fill="#00aec5"/><path d="M221.374,282.2017a5.0753,5.0753,0,0,0,3.001-1.0567l1.9443,2.1133a7.7139,7.7139,0,1,1,0-11.4541l-1.9868,2.0708a4.7594,4.7594,0,0,0-2.9585-1.0567,4.4081,4.4081,0,0,0-4.2265,4.6919C217.1475,280.0884,218.8379,282.2017,221.374,282.2017Z" transform="translate(-12.6836 -9.3525)" fill="#00aec5"/><path d="M235.9116,269.8174c4.9873,0,7.4815,3.6352,7.4815,7.6928a5.6367,5.6367,0,0,1-.0425.8453H231.77c.042,2.5786,2.0708,4.1,4.6494,4.1a6.9881,6.9881,0,0,0,4.3956-1.7334l1.6909,1.69a8.6224,8.6224,0,0,1-6.5093,2.79,7.6932,7.6932,0,1,1-.0845-15.3852Zm-4.1845,6.1289h8.3691a4.4414,4.4414,0,0,0-4.1846-3.7617A4.2948,4.2948,0,0,0,231.7271,275.9463Z" transform="translate(-12.6836 -9.3525)" fill="#00aec5"/><path d="M252.3062,277.4253a7.7139,7.7139,0,1,1,7.6923,7.65A7.34,7.34,0,0,1,252.3062,277.4253Zm11.9614,0c0-3.043-1.9863-5.0718-4.2691-5.0718-2.24,0-4.2265,2.0288-4.2265,5.0718,0,3.17,1.9018,5.1572,4.2265,5.1572S264.2676,280.5952,264.2676,277.4253Z" transform="translate(-12.6836 -9.3525)" fill="#00aec5"/><path d="M274.7466,262.7168v7.5654h3.001v2.8745h-3.043v19.1045h-3.4658V273.1567h-2.0713v-2.8745h2.0713v-7.5234c0-6.1284,1.5634-8.749,5.4946-8.749a15.49,15.49,0,0,1,2.4512.2534l-.4224,2.7051a5.69,5.69,0,0,0-1.2261-.2115C275.2119,256.7568,274.7466,258.8281,274.7466,262.7168Z" transform="translate(-12.6836 -9.3525)" fill="#00aec5"/><path d="M287.8872,276.0308v-2.8741h-2.0288v-2.8745h2.0288v-4.86h3.5083v4.86h3.043v2.8745h-3.043v2.79c0,4.5649.2109,6.0444,1.8594,6.0444a9.5534,9.5534,0,0,0,1.0146-.1269l.4229,2.6621a8.1129,8.1129,0,0,1-2.4522.5078C287.8872,285.0337,287.8872,281.9477,287.8872,276.0308Z" transform="translate(-12.6836 -9.3525)" fill="#00aec5"/><path d="M300.6074,284.6108h-3.4658V254.1787h3.4658v18.0479a4.87,4.87,0,0,1,4.27-2.4092c4.3535,0,6.0439,2.7475,6.0439,6.9741v7.8193h-3.5078v-7.8193c0-2.9165-1.3106-4.1421-3.34-4.1421-1.9013,0-3.4658,1.1836-3.4658,4.0151Z" transform="translate(-12.6836 -9.3525)" fill="#00aec5"/><path d="M321.4414,269.8174c4.9873,0,7.4805,3.6352,7.4805,7.6928a5.7031,5.7031,0,0,1-.042.8453H317.2988c.042,2.5786,2.0713,4.1,4.6494,4.1a6.9871,6.9871,0,0,0,4.3956-1.7334l1.69,1.69a8.62,8.62,0,0,1-6.5088,2.79,7.6932,7.6932,0,1,1-.084-15.3852Zm-4.1846,6.1289h8.3682a4.44,4.44,0,0,0-4.1836-3.7617A4.2942,4.2942,0,0,0,317.2568,275.9463Z" transform="translate(-12.6836 -9.3525)" fill="#00aec5"/><path d="M353.0947,281.9058a12.3536,12.3536,0,0,0,7.3545-2.7051l2.1133,2.3242a14.5328,14.5328,0,0,1-9.4678,3.5088,15.1985,15.1985,0,0,1,0-30.39,14.726,14.726,0,0,1,9.4678,3.4659l-2.1133,2.3247a12.5119,12.5119,0,0,0-7.3545-2.6626c-6.1289,0-11.0742,5.41-11.0742,12.0459S346.9658,281.9058,353.0947,281.9058Z" transform="translate(-12.6836 -9.3525)" fill="#00aec5"/><path d="M371.3916,269.8174a5.5244,5.5244,0,0,1,4.9453,2.9165v-2.4517H379.76v14.3286h-3.4229v-2.2822a5.5856,5.5856,0,0,1-4.9033,2.874c-4.3535,0-7.0586-3.6347-7.0586-7.65C364.375,273.4946,367.1221,269.8174,371.3916,269.8174Zm.7178,12.3423c2.5361,0,4.1845-2.1563,4.1845-4.6495s-1.6484-4.6919-4.1845-4.6919a4.4085,4.4085,0,0,0-4.2266,4.6919C367.8828,280.1724,369.5742,282.16,372.1094,282.16Z" transform="translate(-12.6836 -9.3525)" fill="#00aec5"/><path d="M387.1533,284.6108h-3.4658V270.2822h3.4658v1.9444a4.7671,4.7671,0,0,1,4.2686-2.4092,6.1258,6.1258,0,0,1,1.9873.3384l-1.4375,2.8315a4.0014,4.0014,0,0,0-1.4795-.2959c-1.8594,0-3.3389,1.0991-3.3389,3.9731Z" transform="translate(-12.6836 -9.3525)" fill="#00aec5"/><path d="M398.9434,266.0557a2.1745,2.1745,0,0,1-2.1983,2.1557,2.1769,2.1769,0,0,1,0-4.3535A2.1833,2.1833,0,0,1,398.9434,266.0557Zm-3.9737,4.2265h3.4658v8.834c0,2.0288.169,2.9585,1.6915,2.9585.1259,0,.1689-.042.2959-.042l.2529,2.3672a4.6853,4.6853,0,0,1-1.4795.4219,6.5848,6.5848,0,0,1-.93-.042c-2.7471-.211-3.2969-2.62-3.2969-5.6636Z" transform="translate(-12.6836 -9.3525)" fill="#00aec5"/><path d="M411.3682,285.2026a5.6821,5.6821,0,0,1-4.9873-2.832v2.24H402.915V254.1787h3.4659v18.5552a5.652,5.652,0,0,1,4.9453-2.874c4.3115,0,7.0166,3.6347,7.0166,7.65S415.6377,285.2026,411.3682,285.2026Zm-.7178-12.3418a4.3544,4.3544,0,0,0-4.2695,4.5645c0,2.5361,1.6484,4.7764,4.2695,4.7764a4.3721,4.3721,0,0,0,4.2266-4.6495C414.877,274.89,413.1436,272.8608,410.65,272.8608Z" transform="translate(-12.6836 -9.3525)" fill="#00aec5"/><path d="M429.835,285.2026a5.6821,5.6821,0,0,1-4.9873-2.832v2.24h-3.4659V254.1787h3.4659v18.5552a5.652,5.652,0,0,1,4.9453-2.874c4.3115,0,7.0166,3.6347,7.0166,7.65S434.1045,285.2026,429.835,285.2026Zm-.7178-12.3418a4.3543,4.3543,0,0,0-4.27,4.5645c0,2.5361,1.6484,4.7764,4.27,4.7764a4.3721,4.3721,0,0,0,4.2266-4.6495C433.3438,274.89,431.61,272.8608,429.1172,272.8608Z" transform="translate(-12.6836 -9.3525)" fill="#00aec5"/><path d="M446.6543,269.8174c4.9883,0,7.4814,3.6352,7.4814,7.6928a5.7166,5.7166,0,0,1-.0419.8453H442.5127c.042,2.5786,2.0713,4.1,4.6494,4.1a6.9869,6.9869,0,0,0,4.3955-1.7334l1.69,1.69a8.62,8.62,0,0,1-6.5087,2.79,7.6932,7.6932,0,1,1-.085-15.3852Zm-4.1836,6.1289h8.3682a4.44,4.44,0,0,0-4.1846-3.7617A4.2939,4.2939,0,0,0,442.4707,275.9463Z" transform="translate(-12.6836 -9.3525)" fill="#00aec5"/><path d="M463.0508,269.8174a5.5245,5.5245,0,0,1,4.9453,2.9165v-2.4517h3.4228v14.3286h-3.4228v-2.2822a5.5858,5.5858,0,0,1-4.9033,2.874c-4.3535,0-7.0586-3.6347-7.0586-7.65C456.0342,273.4946,458.7813,269.8174,463.0508,269.8174ZM463.77,282.16c2.5352,0,4.1836-2.1563,4.1836-4.6495s-1.6484-4.6919-4.1836-4.6919a4.4086,4.4086,0,0,0-4.2275,4.6919C459.542,280.1724,461.2334,282.16,463.77,282.16Z" transform="translate(-12.6836 -9.3525)" fill="#00aec5"/><path d="M478.8125,284.6108h-3.5078V270.2822h3.5078v1.9444a4.7671,4.7671,0,0,1,4.2686-2.4092c4.2695,0,6.0019,2.7475,6.0019,6.9741v7.8193h-3.4658v-7.8193c0-2.9165-1.31-4.1421-3.3809-4.1421-1.86,0-3.3818,1.1836-3.4238,4.0151Z" transform="translate(-12.6836 -9.3525)" fill="#00aec5"/><path d="M45.748,172.7217c0,9.374-6.6967,16.3217-16.3222,18.0786a28.6025,28.6025,0,0,1-6.5293.5024v22.4341H12.6836V155.896a55.64,55.64,0,0,1,11.4683-1.5078C38.6328,154.3882,45.748,163.5137,45.748,172.7217ZM22.8965,182.8491a7.7966,7.7966,0,0,0,1.9253.168c7.0322,0,10.5464-5.19,10.5464-10.1284,0-4.94-3.5142-10.13-10.5464-10.13a16.42,16.42,0,0,0-1.9253.1679Z" transform="translate(-12.6836 -9.3525)" fill="#00aec5"/><path d="M85.2607,155.1421H95.5562v40.3457c0,15.4878-9.3746,19.0024-18.7491,19.0024-9.2925,0-18.6665-3.5146-18.6665-19.0024V155.1421H68.3525v38.2544c0,11.0488,5.106,12.3032,8.4546,12.3032s8.4536-1.2544,8.4536-12.3032Z" transform="translate(-12.6836 -9.3525)" fill="#00aec5"/><path d="M144.3618,172.7217a18.29,18.29,0,0,1-10.0444,16.0708l14.3139,24.9443H137.498l-13.1411-22.35a6.3529,6.3529,0,0,1-1.2558.0835,9.248,9.248,0,0,1-1.5913-.1675v22.4341H111.2979V155.896a55.6349,55.6349,0,0,1,11.4677-1.5078C137.2461,154.3882,144.3618,163.5137,144.3618,172.7217ZM121.51,182.8491a8.127,8.127,0,0,0,2.01.168c6.9473,0,10.4629-5.19,10.4629-10.1284,0-4.94-3.5156-10.13-10.4629-10.13a16.3193,16.3193,0,0,0-2.01.1679Z" transform="translate(-12.6836 -9.3525)" fill="#00aec5"/><path d="M161.5273,155.1421h29.2134v8.2861H171.7383v16.4907H188.146v8.2871H171.7383v17.16h19.0024v8.3706H161.5273Z" transform="translate(-12.6836 -9.3525)" fill="#00aec5"/><path d="M253.6914,206.5366a19.6864,19.6864,0,0,0,10.1274-2.8437V188.96H252.3511v-8.2042h21.68V207.207c-4.9385,4.939-12.8086,7.7852-20.34,7.7852a30.3021,30.3021,0,1,1,20.2549-52.9038l-5.6924,6.2783c-4.1836-3.18-9.1226-5.6079-14.5625-5.6079-11.3008,0-20.0063,9.8769-20.0063,21.8471S242.3906,206.5366,253.6914,206.5366Z" transform="translate(-12.6836 -9.3525)" fill="#00aec5"/><path d="M320.9121,172.7217a18.2931,18.2931,0,0,1-10.0449,16.0708L325.18,213.7368H314.0479l-13.1416-22.35a6.3539,6.3539,0,0,1-1.2559.0835,9.2744,9.2744,0,0,1-1.5908-.1675v22.4341H287.8467V155.896a55.6712,55.6712,0,0,1,11.4678-1.5078C313.7949,154.3882,320.9121,163.5137,320.9121,172.7217ZM298.06,182.8491a8.1214,8.1214,0,0,0,2.0088.168c6.9482,0,10.4648-5.19,10.4648-10.1284,0-4.94-3.5166-10.13-10.4648-10.13a16.3114,16.3114,0,0,0-2.0088.1679Z" transform="translate(-12.6836 -9.3525)" fill="#00aec5"/><path d="M338.0752,155.1421H367.29v8.2861H348.2891v16.4907h16.4043v8.2871H348.2891v17.16H367.29v8.3706H338.0752Z" transform="translate(-12.6836 -9.3525)" fill="#00aec5"/><path d="M391.5654,213.7368H381.3535V153.3843l34.4873,36.831V155.1421h10.2129v59.85l-34.4883-36.7486Z" transform="translate(-12.6836 -9.3525)" fill="#00aec5"/><path d="M459.4561,153.4678l21.4287,60.269H470.09l-2.6787-9.2915H451.1689l-2.76,9.2915H437.6133Zm-5.6885,42.6069h11.0478l-5.4414-18.5825Z" transform="translate(-12.6836 -9.3525)" fill="#00aec5"/><path d="M492.5264,212.9829V155.8115a69.3943,69.3943,0,0,1,12.1367-1.4233c19.4189,0,27.96,14.6484,27.96,30.0508s-8.541,30.0512-27.96,30.0512A68.74,68.74,0,0,1,492.5264,212.9829Zm10.2109-7.2a10.2057,10.2057,0,0,0,2.6787.3359c10.7969,0,16.9072-10.7988,16.9072-21.68s-6.11-21.68-16.9072-21.68a10.28,10.28,0,0,0-2.6787.334Z" transform="translate(-12.6836 -9.3525)" fill="#00aec5"/><path d="M563.7637,153.4678l21.4287,60.269H574.3955l-2.6787-9.2915H555.4756l-2.7627,9.2915H541.917Zm-5.6895,42.6069h11.0479l-5.4405-18.5825Z" transform="translate(-12.6836 -9.3525)" fill="#00aec5"/><path d="M348.1221,111.6357a41.254,41.254,0,0,0-21.9356-15.0688h-.0029c.07-.0215.1074-.0366.1074-.0366a37.0017,37.0017,0,0,0,4.459-1.6866,30.7346,30.7346,0,0,0,8.8418-6.059l.0068.0117a32.6614,32.6614,0,0,0,2.4053-2.7188c10.2158-12.6865,8.5918-34.2251-.93-50.1343L302.7578,78.5605a30.5109,30.5109,0,0,0-4.1865,5.8457,30.1953,30.1953,0,0,0-4.1836-5.8457L256.0708,35.9433c-9.52,15.9092-11.1431,37.4478-.9292,50.1343a32.2648,32.2648,0,0,0,2.4067,2.7188l.001-.0117a30.89,30.89,0,0,0,8.8452,6.059A37.2179,37.2179,0,0,0,270.855,96.53c-.0083,0,.1557.0576.4575.146a41.3648,41.3648,0,0,0-21.5586,14.9594c-2.897,4.3662-3.4385,8.1167-1.6177,11.1465,1.5386,2.5547,4.4859,3.9566,8.3116,3.9566.3413,0,.6376-.0147.8491-.023.1679.0025.3354.0025.5068.0025,18.1973,0,32.7451-12.4039,39.59-21.063h1.16l.0068-1.5406c.0108-.0122.0137-.02.0235-.0332l.0068,1.5738h1.8906c6.8438,8.6591,21.3975,21.063,39.5948,21.063.167,0,.332,0,.5029-.0025.2129.0083.5088.023.8486.023,3.8262,0,6.7784-1.4019,8.3155-3.9566C351.5605,119.7524,351.0186,116.0019,348.1221,111.6357Zm-56.1621-4.08c-4.6612,4.871-17.2212,16.0795-33.9043,16.0795-.1953,0-.3931,0-.5909-.0034-.1552.0117-.4233.03-.7607.03-1.4951,0-4.4165-.3013-5.7432-2.5093-1.1806-1.9692-.6855-4.5586,1.5323-7.9067a30.6194,30.6194,0,0,1,7.0454-7.5513,34.0739,34.0739,0,0,1,22.15-7.0967h.05c1.8608.1031,5.1616.521,6.32,2.1734a1.7381,1.7381,0,0,1-.5366,2.4936l-15.0215,8.9395-1.7852-2.9922,11.8384-7.044c-.3276-.038-.6616-.0722-.9814-.0908a30.2865,30.2865,0,0,0-19.7779,6.2783,27.3889,27.3889,0,0,0-6.333,6.7139c-.0161.021-.0342.0527-.05.07-1.543,2.333-1.7642,3.7076-1.4634,4.2178.399.6694,2.2007.897,3.2935.8a.983.983,0,0,1,.1919-.0093c15.2978.2832,27.0561-9.914,31.6968-14.6748h4.6865l.0254.0235C293.6279,105.7353,292.415,107.0835,291.96,107.5557Zm.2812-4.8018,1.0176-2.4077c.8389-1.9737,1.0039-3.5015.4756-4.2017-.6494-.85-2.5254-.893-3.3369-.7827a1.8005,1.8005,0,0,1-.3555.0088c-.0127,0-.0225.0029-.0313.0029-1.33.0674-2.6225.1035-3.8877.1035a48.963,48.963,0,0,1-16.2084-2.42,25.3647,25.3647,0,0,1-12.0054-8.3276c-5.5586-7.2344-7.7051-16.7251-6.2051-27.4473a53.19,53.19,0,0,1,3.9512-14.0674l1.1211-2.39,4.5727,5.1909,30.74,34.43c.9756,1.0933,3.9463,4.418,2.1738,6.8936-1.2813,1.7988-4.0361,1.85-6.9541,1.9057h-.0776c-10.0142.1944-17.3677-2.0005-22.4766-6.708-9.78-9.0088-6.958-24.7319-6.2407-27.9932l2.9575,3.2706c-.7119,5.1884-1.1738,15.8989,5.6343,22.1718,4.42,4.0708,10.9853,5.9678,20.0581,5.793h.082a16.161,16.161,0,0,0,4.0591-.3926,8.2344,8.2344,0,0,0-1.8037-2.63L258.7534,48.3179l-.9712-1.106a52.7656,52.7656,0,0,0-2.6577,10.647c-1.3589,9.8779.5049,18.2075,5.5357,24.7578,5.2075,6.7832,15.2973,9.998,29.1718,9.2949a1.7613,1.7613,0,0,1,.19,0c.7959-.1,4.5166-.4014,6.456,2.1065a6.06,6.06,0,0,1,.7813,5.2675h2.9394a6.2937,6.2937,0,0,1,.9981-5.4165c1.9512-2.3686,5.3926-2.0576,6.1475-1.9546,13.8339.6885,23.8974-2.5268,29.1044-9.2978,9.6748-12.5967,5.1348-29.1631,2.876-35.4009l-.9687,1.0923L307.6064,82.7558a8.04,8.04,0,0,0-1.8017,2.63,16.1015,16.1015,0,0,0,4.0537.3926h.082c9.0752.168,15.6416-1.7222,20.0606-5.793,6.7353-6.2085,6.3545-16.7671,5.65-22.0166l2.956-3.3437c.7432,3.4433,3.4375,18.9844-6.2588,27.9111-5.11,4.7075-12.4638,6.9024-22.4716,6.708h-.0782c-2.9228-.0556-5.6767-.1069-6.958-1.9057-1.7685-2.4756,1.2-5.8,2.18-6.8936l30.7432-34.4395,4.56-5.1816,1.1289,2.39a53.6434,53.6434,0,0,1,3.9493,14.0674c1.498,10.7222-.6465,20.2129-6.2071,27.4473a25.4172,25.4172,0,0,1-11.999,8.3276,49.0131,49.0131,0,0,1-16.2139,2.42c-1.2666,0-2.5517-.0361-3.8828-.1035a1.0433,1.0433,0,0,1-.1084-.01.4253.4253,0,0,1-.0732-.0083l-.0068-.0035c-.56-.0791-2.3438-.1245-3.044.7276-.5937.7309-.5088,2.2749.251,4.3476l.8389,2.3267Zm54.5361,18.3989c-1.3271,2.208-4.2539,2.5093-5.7431,2.5093-.3408,0-.6055-.0186-.7627-.03-.1983.0034-.3955.0034-.5938.0034-16.6777,0-29.2373-11.2085-33.9052-16.0795-.4473-.4722-1.6651-1.8179-1.8789-2.0586l.0263-.0235h4.6865c4.6465,4.7608,16.41,14.958,31.6915,14.6748a1.0817,1.0817,0,0,1,.2021.0093c1.0889.0967,2.8936-.1309,3.2891-.8.3037-.51.0781-1.8848-1.4707-4.2178a.6327.6327,0,0,0-.0469-.0756,27.4557,27.4557,0,0,0-6.334-6.7081,30.2676,30.2676,0,0,0-19.7764-6.2783c-.3222.0186-.6513.0528-.9756.0908l11.834,7.044-1.78,2.9922-15.0245-8.9395a1.7449,1.7449,0,0,1-.538-2.4936c1.1552-1.6524,4.456-2.07,6.3193-2.1734h.0508a34.0563,34.0563,0,0,1,22.1484,7.0967,30.6169,30.6169,0,0,1,7.0469,7.5513C347.459,116.5942,347.959,119.1836,346.7773,121.1528Z" transform="translate(-12.6836 -9.3525)" fill="#00aec5"/><path d="M307.8662,18.1894c-.6133-.8823-1.832-2.0239-2.4394-1.8725-.0616.0122-1.4727.4233-2.209,6.3423-.07.56-.124,1.1147-.1787,1.6631-.0127.3891-.0215.7871-.0381,1.19-.0186.3105-.0293.6274-.0352.9561-.0449,1.0136-.1015,2.062-.1621,3.1547-.0224.4038-.042.7857-.06,1.1568l-.0166-.0034c.0136,8.2666,1.5966,14.7666,3.17,15.7109.0615.0366.1142.064.2812-.0366,5.045-5.5689,2.5889-13.7866.6241-18.524l-.0821-6.8139,1.2139,2.17c.0674.1621.2139.4785.3838.8442,1.875,4.01,7.5762,16.2066-.1084,24.4493l-.0986.11-.125.0855a3.1827,3.1827,0,0,1-3.5948.2309c-3.8984-2.33-5.2861-14.374-4.2783-24.9.0244-1.1577.0273-2.3022-.0127-3.3711-.1435-3.6718-.7236-4.6118-.8965-4.813-.1963.0577-.8525.3555-2.1172,1.8482-4.2861,5.09-13.4106,19.0937-5.541,39.21.3906.8647,1.52,2.6914,2.6084,2.9775a1.2459,1.2459,0,0,0,1.1367-.3257h0a2.4259,2.4259,0,0,0,.3955-.6968A28.4654,28.4654,0,0,1,291.67,41.0161a14.2579,14.2579,0,0,1,4.5137-8.9819l.0527,4.4482a12.9353,12.9353,0,0,0-1.6631,4.9414c-.8525,6.0645,1.5049,13.4185,4.1778,16.749,1.4189,1.7632,2.2441,2.3628,3.1152,2.2413.2588-.07,3.5928-1.0967,7.3779-6.7593.084-.125.1768-.2652.2725-.4146C312.1787,49.31,320.2783,37.3413,307.8662,18.1894Zm-4.3525,3.1978-.0313-.043.042-.0224C303.5205,21.3442,303.5166,21.3657,303.5137,21.3872Z" transform="translate(-12.6836 -9.3525)" fill="#00aec5"/><path d="M312.0283,13.3369c-.5078-.7187-3.3252-4.437-6.8486-3.6387a4.965,4.965,0,0,0-2.9776,2.1519A4.0543,4.0543,0,0,0,300.67,9.89a3.483,3.483,0,0,0-2.2646-.5151c-1.5528.1807-3.2041,1.3008-5.0557,3.438a43.9825,43.9825,0,0,0-9.9375,20.3935,47.726,47.726,0,0,0,1.8633,24.6045c.5449,1.6231,4.2085,10.7544,14.4707,9.0308,8.57-1.44,13.7773-8.69,13.9248-8.8877C317.2637,52.9878,328.5928,38.2,312.0283,13.3369Zm-.0791,41.5513q-.1479.2131-.2695.3955c-4.6016,6.8935-8.7842,7.9189-9.2432,8.0107l-.0586.0093a4.6293,4.6293,0,0,1-.7509.0635,5.5623,5.5623,0,0,1-3.9805-2,3.2654,3.2654,0,0,1-.5938.6084,4.34,4.34,0,0,1-2.64.9472,4.1228,4.1228,0,0,1-1.0078-.1308c-2.7637-.7276-4.3814-4.2632-4.5557-4.6621l-.0225-.0542c-8.4731-21.5962,1.3868-36.7041,6.0176-42.2027,1.3184-1.5615,3.3164-3.5473,5.4229-2.71a3.62,3.62,0,0,1,1.9678,2.2842,4.0491,4.0491,0,0,1,2.5029-1.9825c2.8818-.7,5.2969,2.6978,5.5615,3.085l.0225.0293C323.8027,37.3682,314.88,50.5552,311.9492,54.8882Z" transform="translate(-12.6836 -9.3525)" fill="#00aec5"/></svg>
