<svg id="Ebene_1" data-name="Ebene 1" xmlns="http://www.w3.org/2000/svg" xmlns:xlink="http://www.w3.org/1999/xlink" viewBox="0 0 497 549"><title>flower</title><g opacity="0.3"><image width="497" height="549" opacity="0.2" xlink:href="flower1.png"/><path d="M385.3069,388.2423c-1.333-2.0014-29.9309-42.726-82.2593-56.5085h-.0108c.2637-.0806.4029-.1374.4029-.1374a138.7258,138.7258,0,0,0,16.7213-6.3247c21.7749-10.3325,33.1571-22.7216,33.1571-22.7216l.0254.044a122.4781,122.4781,0,0,0,9.02-10.1957c38.3094-47.5746,32.2195-128.3453-3.4864-188.0053L215.1893,264.2091a114.4231,114.4231,0,0,0-15.7,21.9216,113.2308,113.2308,0,0,0-15.6886-21.9216l-143.69-159.816c-35.7,59.66-41.7871,140.4307-3.4845,188.0053a121.01,121.01,0,0,0,9.0251,10.1957l.0039-.044s11.4151,12.3891,33.17,22.7216a139.56,139.56,0,0,0,16.727,6.3247c-.0311,0,.5839.2161,1.7157.5475-51.4037,14.1377-79.5161,54.121-80.8455,56.0984-10.8639,16.3734-12.8946,30.4379-6.0665,41.8,5.77,9.58,16.8223,14.8372,31.1689,14.8372,1.28,0,2.391-.0549,3.184-.0861.63.0094,1.2578.0094,1.9007.0094,68.24,0,122.7951-46.5152,148.4636-78.9872h4.35l.0254-5.7772c.0405-.0458.0515-.0769.0881-.1246l.0256,5.9018h7.09c25.6646,32.472,80.2415,78.9872,148.4819,78.9872.6262,0,1.2451,0,1.886-.0094.7984.0312,1.908.0861,3.1822.0861,14.3485,0,25.4194-5.257,31.1834-14.8372C398.2011,418.68,396.1691,404.6157,385.3069,388.2423Zm-210.61-15.3c-17.48,18.2663-64.58,60.2986-127.1426,60.2986-.7322,0-1.474,0-2.2158-.0128-.5821.0439-1.5873.1137-2.8526.1137-5.6067,0-16.562-1.13-21.5373-9.41-4.4273-7.3845-2.5706-17.0949,5.7461-29.65,1.0236-1.6883,9.496-15.1265,26.4206-28.3176,16.3316-12.706,43.9824-27.6327,83.065-26.613h.1886c6.978.3866,19.356,1.9538,23.6993,8.15a6.5179,6.5179,0,0,1-2.0121,9.3511l-56.3313,33.5235-6.6944-11.2208L139.425,352.74c-1.2286-.1426-2.4811-.2708-3.68-.3406-28.0376-.7063-52.9878,7.2035-74.1678,23.544C45.6393,388.2423,37.8884,400.9849,37.828,401.12c-.0605.0788-.1284.1976-.1868.2616-5.7864,8.7489-6.6159,13.9036-5.488,15.8171,1.4965,2.51,8.2529,3.3637,12.3509,3.0011a3.6886,3.6886,0,0,1,.72-.035c57.3672,1.062,101.4613-37.1779,118.8643-55.0311h17.5744l.0952.0882C180.9517,366.1156,176.4033,371.1714,174.6972,372.9423Zm1.0545-18.007,3.8159-9.029c3.146-7.4014,3.7647-13.1306,1.7835-15.7566-2.4351-3.1879-9.47-3.3486-12.5133-2.935a6.7707,6.7707,0,0,1-1.3333.0329c-.0476,0-.0844.0108-.1174.0108-4.9876.2529-9.8345.3882-14.579.3882-23.2855,0-43.6928-3.0483-60.782-9.0766-19.1606-6.7565-34.2978-17.2632-45.0208-31.2287C26.16,260.2119,18.111,224.6215,23.736,184.4128A199.4727,199.4727,0,0,1,38.5531,131.66l4.2041-8.9629,17.148,19.4659L175.18,271.2773c3.6587,4.1,14.7989,16.5675,8.1519,25.851-4.805,6.7457-15.1356,6.9382-26.0781,7.1465h-.2909c-37.5537.7292-65.13-7.5019-84.2882-25.1551-36.6745-33.7835-26.0928-92.7456-23.4029-104.9756l11.0908,12.265c-2.67,19.4565-4.4019,59.6213,21.1287,83.1449,16.5767,15.2656,41.1955,22.38,75.2186,21.7241h.3077c4.4678-.0863,12.446-.26,15.2217-1.4724-.41-1.2653-1.8057-4.323-6.764-9.864L50.1712,150.7982l-3.6422-4.1474a197.8715,197.8715,0,0,0-9.9663,39.9265C31.4666,223.62,38.456,254.8562,57.3218,279.42c19.5282,25.4373,57.3654,37.4928,109.3951,34.8563a6.5807,6.5807,0,0,1,.7107,0c2.9847-.3753,16.9374-1.5053,24.21,7.8995,3.8345,5.002,4.82,11.6255,2.93,19.7532h11.0228c-1.6368-8.5031-.3768-15.3241,3.7429-20.3121,7.3172-8.8823,20.2224-7.7159,23.0535-7.33,51.8774,2.582,89.6161-9.4756,109.1424-34.8671,36.2809-47.238,19.2558-109.3626,10.7852-132.7545l-3.6328,4.0961-115.31,129.18c-4.962,5.541-6.3753,8.5987-6.7564,9.864,2.7466,1.2124,10.752,1.3861,15.2016,1.4724h.3073c34.0324.63,58.6566-6.4585,75.2281-21.7241,25.2575-23.2821,23.8295-62.8772,21.1891-82.5631l11.0853-12.5389c2.7869,12.9125,12.8908,71.1923-23.4709,104.6677-19.1638,17.6532-46.74,25.8843-84.2691,25.1551h-.2935c-10.96-.2083-21.2878-.4008-26.0925-7.1465-6.6322-9.2835,4.5008-21.7513,8.1739-25.851l115.288-129.15,17.0983-19.4311,4.2334,8.9629a201.17,201.17,0,0,1,14.81,52.7532c5.6177,40.2087-2.4244,75.7991-23.2768,102.9285-10.737,13.9655-25.8768,24.4722-44.9966,31.2287-17.1134,6.0283-37.5074,9.0766-60.8028,9.0766-4.75,0-9.569-.1353-14.5607-.3882a3.8988,3.8988,0,0,1-.4065-.0364,1.5578,1.5578,0,0,1-.2744-.0311s-.0254,0-.0254-.0131c-2.0987-.2966-8.7894-.4669-11.4152,2.7286-2.2263,2.7409-1.9079,8.5309.9412,16.3036l3.146,8.7253Zm204.5122,68.9964c-4.9766,8.28-15.9523,9.41-21.5368,9.41-1.2779,0-2.2706-.07-2.86-.1137-.7436.0128-1.4831.0128-2.2268.0128-62.5419,0-109.6409-42.0323-127.1455-60.2986-1.6775-1.7709-6.2442-6.8173-7.046-7.72l.0987-.0882h17.5744c17.4244,17.8532,61.5389,56.0931,118.8443,55.0311a4.0583,4.0583,0,0,1,.7579.035c4.0833.3626,10.8511-.491,12.3341-3.0011,1.1389-1.9135.2929-7.0682-5.515-15.8171a2.4078,2.4078,0,0,0-.176-.2833c-.073-.1138-7.7857-12.8564-23.7527-25.1557-21.1637-16.34-46.11-24.25-74.1623-23.544-1.2083.07-2.4424.198-3.6585.3406l44.3779,26.4153-6.6756,11.2208-56.3426-33.5235a6.5435,6.5435,0,0,1-2.0174-9.3511c4.3319-6.1965,16.71-7.7637,23.6975-8.15h.19c39.09-1.02,66.7391,13.907,83.0574,26.613,16.9335,13.1911,25.3858,26.6147,26.426,28.3176C382.82,406.8368,384.6953,416.5472,380.2639,423.9317Z" transform="translate(47.6757 49.6757)" fill="#fff"/><path d="M182.9221,194.4345c.9119.2414,2.2193.3094,4.2626-1.2213a9.0978,9.0978,0,0,0,1.4831-2.6132c-10.3748-15.7141-18.413-43.3763-15.0585-67.1837,1.9993-14.1706,7.815-25.7009,16.9264-33.6825l.1976,16.681a48.5067,48.5067,0,0,0-6.2367,18.53c-3.1968,22.7421,5.6434,50.32,15.6669,62.8094,5.3211,6.612,8.4156,8.8606,11.6823,8.4051.97-.2642,13.473-4.1128,27.6672-25.3478.315-.4687.6631-.9945,1.022-1.5548,9.983-14.74,40.3568-59.6213-6.189-131.4417-2.3-3.3087-6.87-7.59-9.1478-7.0219-.2312.0457-5.5228,1.5873-8.284,23.7838-.2635,2.1-.4649,4.18-.67,6.2368-.0476,1.4592-.0806,2.9515-.1428,4.4621-.07,1.1644-.11,2.3527-.1319,3.5855-.1684,3.8008-.3806,7.7324-.6079,11.83-.084,1.5143-.1575,2.9464-.227,4.338l-.0623-.0128c.0511,31,5.9874,55.3753,11.8873,58.9166.2307.1373.4283.24,1.0545-.1373,18.9191-20.8836,9.7086-51.7,2.3406-69.4657l-.3081-25.5523,4.5523,8.1372c.2527.608.8022,1.7943,1.4392,3.1657,7.0313,15.0389,28.4111,60.7754-.4065,91.6857l-.37.4118-.4687.3207c-4.3362,3.08-9.2474,3.3874-13.4808.8658-14.6191-8.736-19.823-53.9029-16.0437-93.3755.0916-4.3413.1024-8.6333-.0476-12.6417-.5381-13.7695-2.7136-17.2945-3.362-18.0489-.7361.2163-3.1969,1.3332-7.94,6.9308-16.0729,19.0887-50.29,71.602-20.7787,147.039C174.6052,186.5114,178.8391,193.3615,182.9221,194.4345ZM218.0238,49.8072l-.1172-.1613.1575-.084C218.0494,49.6459,218.0348,49.7267,218.0238,49.8072Z" transform="translate(47.6757 49.6757)" fill="#fff"/><path d="M203.8952,220.2618c32.139-5.4017,51.6654-32.586,52.2186-33.3292,13.473-18.622,55.9575-74.0779-6.16-167.3143-1.9043-2.6951-12.47-16.6389-25.6826-13.6453-4.4131,1.0238-8.108,3.6877-11.1661,8.07a15.2051,15.2051,0,0,0-5.7457-7.352,13.0618,13.0618,0,0,0-8.4925-1.9315c-5.823.6775-12.0155,4.878-18.9589,12.8926a164.934,164.934,0,0,0-37.266,76.4763c-5.88,29.9145-3.5049,60.8923,6.9874,92.2677C151.6731,192.4826,165.4116,226.7252,203.8952,220.2618Zm-18.38-191.1331c4.9441-5.8555,12.4367-13.3025,20.3361-10.1641,3.38,1.3239,5.7567,4.27,7.38,8.5658,2.523-4.0908,5.625-6.5314,9.3858-7.4344,10.807-2.6253,19.8637,10.1169,20.8559,11.569l.0843.11c50.552,77.9618,17.0912,127.4134,6.1011,143.6623q-.5548.7992-1.0107,1.4832c-17.2563,25.8508-32.941,29.6961-34.6625,30.04l-.22.035a17.3678,17.3678,0,0,1-2.8157.2381c-6.0977.0128-10.8805-3.3344-14.9272-7.5a12.2407,12.2407,0,0,1-2.2268,2.2815,16.273,16.273,0,0,1-9.8985,3.5521,15.4622,15.4622,0,0,1-3.7794-.4905c-10.3638-2.7286-16.43-15.9871-17.0839-17.4831l-.0844-.2033C131.1742,106.4038,168.1491,49.7486,185.5147,29.1287Z" transform="translate(47.6757 49.6757)" fill="#fff"/></g></svg>